# xmcd CD database file
#
# Track frame offsets:
#	150
#	19098
#	34031
#	55383
#	69677
#	88621
#	100999
#	115023
#	129792
#	153264
#	164402
#	180027
#
# Disc length: 2632 seconds
#
# Revision: 0
# Processed by: cddbd v1.5.2PL0 Copyright (c) Steve Scherf et al.
# Submitted via: CDex 1.70beta2
#
DISCID=8c0a460c
DTITLE=Andreas Max Martin - Zurück in dieser Welt
DYEAR=2009
DGENRE=Jazz
TTITLE0=Elektrolyt
TTITLE1=Schon?
TTITLE2=Bevor ich Dich gekannt hab
TTITLE3=Begleiterscheinung
TTITLE4=Marsflug
TTITLE5=Mond bei Tageslicht
TTITLE6=Baritonsaxophon
TTITLE7=Bequeme Liebe
TTITLE8=Regenschirm
TTITLE9=Gier
TTITLE10=Nachts in Havanna
TTITLE11=Und nimm nichts mit
EXTD=YEAR: 2009
EXTT0=
EXTT1=
EXTT2=
EXTT3=
EXTT4=
EXTT5=
EXTT6=
EXTT7=
EXTT8=
EXTT9=
EXTT10=
EXTT11=
PLAYORDER=
